# File created by Blade
# Date/Time:  Fri Jan 16 17:53:05 2015
# Frame Rate: 120.000 fps
#------------------------------------------------------
:FULLY-SPECIFIED
:DEGREES
2099
root -4.467171 35.346671 -11.524910 -2.053624 1.774347 -7.665739
Spine 5.652151 -5.312279 5.273495
Head 6.422036 5.996781 1.052421
LeftShoulder -21.622298 16.905218 -7.501065
LeftArm 23.482031 -37.207499 -76.850292
LeftForeArm 2.960664 -0.000000 132.161194
LeftHand 3.526124 -0.000000 14.893015
LeftHandThumb1 -26.253704 0.000000 33.147579
RightShoulder -5.802565 -6.974305 2.128277
RightArm 5.264703 -25.346005 71.426279
RightForeArm -17.999192 -0.000000 24.226750
RightHand 0.976634 -0.000000 0.256902
RightHandThumb1 -24.326973 -0.000000 -32.862282
LeftUpLeg 9.825476 5.403529 -0.809423
LeftLeg -8.452594 -0.000000 0.000000
LeftFoot -14.702466 25.960328 -5.664170
LeftToeBase 19.614604 -0.000000 -0.000000
RightUpLeg 3.528558 -4.826054 11.466586
RightLeg -2.754464 -0.000000 0.000000
RightFoot -1.725383 -22.678734 2.559286
RightToeBase 9.066855 -0.000000 -0.000000
2100
root -4.474789 35.347854 -11.534618 -2.065219 1.618153 -7.685456
Spine 5.708950 -5.256496 5.325925
Head 6.800651 5.916674 0.982324
LeftShoulder -21.644260 16.937583 -7.570631
LeftArm 23.419240 -37.160458 -76.827776
LeftForeArm 2.972878 -0.000000 132.316061
LeftHand 3.520813 -0.000000 14.886380
LeftHandThumb1 -26.253704 0.000000 33.147579
RightShoulder -5.756578 -6.929240 2.048511
RightArm 5.290648 -25.333705 71.412142
RightForeArm -18.178875 -0.000000 24.469271
RightHand 0.961381 -0.000000 0.084995
RightHandThumb1 -24.326973 -0.000000 -32.862282
LeftUpLeg 9.849411 5.430041 -0.789165
LeftLeg -8.483659 -0.000000 0.000000
LeftFoot -14.689349 26.103504 -5.669729
LeftToeBase 19.581647 -0.000000 -0.000000
RightUpLeg 3.450937 -4.890453 11.481764
RightLeg -2.579693 -0.000000 0.000000
RightFoot -1.791463 -22.422977 2.622189
RightToeBase 9.021477 -0.000000 -0.000000
2101
root -4.484565 35.350264 -11.543650 -2.089347 1.463596 -7.717190
Spine 5.788072 -5.215911 5.377818
Head 7.177925 5.864909 0.950159
LeftShoulder -21.681616 16.940633 -7.676230
LeftArm 23.324681 -37.117987 -76.629614
LeftForeArm 3.004396 -0.000000 132.426309
LeftHand 3.641024 -0.000000 15.023599
LeftHandThumb1 -26.253704 0.000000 33.147579
RightShoulder -5.708914 -6.916277 1.985782
RightArm 5.359648 -25.330071 71.367110
RightForeArm -18.224182 -0.000000 24.725819
RightHand 0.882161 0.000000 -0.046143
RightHandThumb1 -24.326973 -0.000000 -32.862282
LeftUpLeg 9.898828 5.481778 -0.742722
LeftLeg -8.529260 -0.000000 0.000000
LeftFoot -14.698704 26.158677 -5.734058
LeftToeBase 19.618184 -0.000000 -0.000000
RightUpLeg 3.387212 -4.962720 11.512092
RightLeg -2.408066 -0.000000 0.000000
RightFoot -1.840888 -22.160452 2.708193
RightToeBase 8.965123 -0.000000 -0.000000
2102
root -4.491034 35.352221 -11.555782 -2.110044 1.293603 -7.734021
Spine 5.868347 -5.165392 5.428589
Head 7.551323 5.893228 0.910069
LeftShoulder -21.717495 16.945122 -7.759174
LeftArm 23.266298 -37.066532 -76.562227
LeftForeArm 3.084186 -0.000000 132.530601
LeftHand 3.714048 -0.000000 14.978334
LeftHandThumb1 -26.253704 0.000000 33.147579
RightShoulder -5.649757 -6.885259 1.913248
RightArm 5.407290 -25.283295 71.318441
RightForeArm -18.422230 -0.000000 25.010531
RightHand 1.020277 -0.000000 0.021558
RightHandThumb1 -24.326973 -0.000000 -32.862282
LeftUpLeg 9.934575 5.530801 -0.723310
LeftLeg -8.561993 -0.000000 0.000000
LeftFoot -14.686865 26.280826 -5.742409
LeftToeBase 19.633073 -0.000000 -0.000000
RightUpLeg 3.313201 -5.034815 11.524485
RightLeg -2.229637 -0.000000 0.000000
RightFoot -1.888409 -21.901133 2.768639
RightToeBase 8.908215 -0.000000 -0.000000
2103
root -4.497155 35.353245 -11.571150 -2.115160 1.111867 -7.741666
Spine 5.933521 -5.100036 5.463467
Head 7.957467 5.904709 0.895224
LeftShoulder -21.736056 16.979548 -7.826312
LeftArm 23.226527 -37.016916 -76.524798
LeftForeArm 3.101037 -0.000000 132.655248
LeftHand 3.783763 0.000000 14.870832
LeftHandThumb1 -26.253704 0.000000 33.147579
RightShoulder -5.601951 -6.785166 1.825390
RightArm 5.387203 -25.242680 71.328159
RightForeArm -18.638674 -0.000000 25.300856
RightHand 1.044826 -0.000000 0.171635
RightHandThumb1 -24.326973 -0.000000 -32.862282
LeftUpLeg 9.957563 5.583128 -0.715653
LeftLeg -8.609165 -0.000000 0.000000
LeftFoot -14.649834 26.397816 -5.754212
LeftToeBase 19.586926 -0.000000 -0.000000
RightUpLeg 3.222352 -5.045338 11.530598
RightLeg -2.053897 -0.000000 0.000000
RightFoot -1.954505 -21.681025 2.841836
RightToeBase 8.882985 -0.000000 -0.000000
2104
root -4.502419 35.354991 -11.589419 -2.103260 0.919882 -7.737648
Spine 5.990238 -5.027645 5.464086
Head 8.378148 5.848862 0.871537
LeftShoulder -21.762893 17.004140 -7.860007
LeftArm 23.182569 -36.949068 -76.509823
LeftForeArm 3.219050 0.000000 132.789419
LeftHand 3.734349 -0.000000 14.882388
LeftHandThumb1 -26.253704 0.000000 33.147579
RightShoulder -5.571361 -6.843555 1.777014
RightArm 5.573042 -25.217128 71.254974
RightForeArm -18.742538 -0.000000 25.520759
RightHand 1.002850 -0.000000 -0.002422
RightHandThumb1 -24.326973 -0.000000 -32.862282
LeftUpLeg 9.956449 5.639015 -0.720786
LeftLeg -8.649484 -0.000000 0.000000
LeftFoot -14.615196 26.514166 -5.786598
LeftToeBase 19.578655 -0.000000 -0.000000
RightUpLeg 3.099305 -5.075891 11.522979
RightLeg -1.861083 -0.000000 0.000000
RightFoot -2.008943 -21.405309 2.851160
RightToeBase 8.656167 -0.000000 -0.000000
2105
root -4.509774 35.356883 -11.606906 -2.099581 0.745242 -7.753005
Spine 6.049843 -4.980843 5.489029
Head 8.810134 5.804841 0.850683
LeftShoulder -21.776025 17.030555 -7.894651
LeftArm 23.133328 -36.900747 -76.490644
LeftForeArm 3.319571 -0.000000 132.910706
LeftHand 3.693970 -0.000000 14.795761
LeftHandThumb1 -26.253704 0.000000 33.147579
RightShoulder -5.560878 -6.889091 1.727849
RightArm 5.770998 -25.221930 71.150184
RightForeArm -18.900676 -0.000000 25.773733
RightHand 1.001272 -0.000000 -0.037935
RightHandThumb1 -24.326973 -0.000000 -32.862282
LeftUpLeg 9.978170 5.630993 -0.707443
LeftLeg -8.720890 -0.000000 0.000000
LeftFoot -14.566980 26.684101 -5.806647
LeftToeBase 19.537427 -0.000000 -0.000000
RightUpLeg 2.978773 -5.153149 11.542924
RightLeg -1.655945 -0.000000 0.000000
RightFoot -2.070029 -21.142821 2.913169
RightToeBase 8.599302 -0.000000 -0.000000
2106
root -4.517098 35.358044 -11.625297 -2.092986 0.565585 -7.761870
Spine 6.101431 -4.925768 5.496322
Head 9.293596 5.780913 0.842232
LeftShoulder -21.780848 17.077036 -7.910977
LeftArm 23.111079 -36.845997 -76.489240
LeftForeArm 3.415948 -0.000000 133.019730
LeftHand 3.713481 0.000000 14.679475
LeftHandThumb1 -26.253704 0.000000 33.147579
RightShoulder -5.536680 -6.883888 1.674819
RightArm 5.875080 -25.319464 71.059711
RightForeArm -19.022285 -0.000000 26.116859
RightHand 0.939547 0.000000 0.051976
RightHandThumb1 -24.326973 -0.000000 -32.862282
LeftUpLeg 9.993754 5.652935 -0.700098
LeftLeg -8.789596 -0.000000 0.000000
LeftFoot -14.524803 26.835943 -5.827157
LeftToeBase 19.547773 -0.000000 -0.000000
RightUpLeg 2.867743 -5.168692 11.560132
RightLeg -1.478514 -0.000000 0.000000
RightFoot -2.098818 -20.952527 2.899829
RightToeBase 8.578838 -0.000000 -0.000000
2107
root -4.525491 35.359198 -11.646247 -2.087065 0.370622 -7.782099
Spine 6.158421 -4.885525 5.520632
Head 9.785306 5.844322 0.860312
LeftShoulder -21.805845 17.124795 -7.941680
LeftArm 23.122073 -36.798746 -76.502474
LeftForeArm 3.458214 -0.000000 133.110421
LeftHand 3.606788 -0.000000 14.669307
LeftHandThumb1 -26.253704 0.000000 33.147579
RightShoulder -5.486456 -6.902829 1.614616
RightArm 6.001866 -25.426419 70.960002
RightForeArm -19.101626 -0.000000 26.462825
RightHand 0.949417 0.000000 -0.141922
RightHandThumb1 -24.326973 -0.000000 -32.862282
LeftUpLeg 10.006311 5.669242 -0.679203
LeftLeg -8.855016 -0.000000 0.000000
LeftFoot -14.485216 27.014672 -5.821577
LeftToeBase 19.556369 -0.000000 -0.000000
RightUpLeg 2.746683 -5.119269 11.595057
RightLeg -1.282077 -0.000000 0.000000
RightFoot -2.137946 -20.816364 2.942932
RightToeBase 8.548159 -0.000000 -0.000000
2108
root -4.532438 35.359942 -11.667595 -2.081389 0.174901 -7.794868
Spine 6.218574 -4.831144 5.524890
Head 10.313814 5.799866 0.855346
LeftShoulder -21.807049 17.170307 -7.944340
LeftArm 23.102818 -36.728809 -76.507394
LeftForeArm 3.645018 -0.000000 133.215461
LeftHand 3.560253 -0.000000 14.548524
LeftHandThumb1 -26.253704 0.000000 33.147579
RightShoulder -5.468608 -6.925807 1.571081
RightArm 6.142166 -25.439345 70.870740
RightForeArm -19.428577 -0.000000 26.818671
RightHand 0.920272 0.000000 -0.100937
RightHandThumb1 -24.326973 -0.000000 -32.862282
LeftUpLeg 10.023390 5.719224 -0.665658
LeftLeg -8.929523 -0.000000 0.000000
LeftFoot -14.438581 27.158631 -5.828193
LeftToeBase 19.562731 -0.000000 -0.000000
RightUpLeg 2.615082 -5.143492 11.614826
RightLeg -1.071906 -0.000000 0.000000
RightFoot -2.218882 -20.598132 3.002721
RightToeBase 8.615403 -0.000000 -0.000000
2109
root -4.539266 35.361378 -11.690588 -2.060643 -0.019595 -7.810321
Spine 6.271912 -4.784523 5.520544
Head 10.836135 5.768887 0.900585
LeftShoulder -21.827877 17.208673 -7.941988
LeftArm 23.096169 -36.687870 -76.513642
LeftForeArm 3.685618 -0.000000 133.293026
LeftHand 3.356069 -0.000000 14.458783
LeftHandThumb1 -26.253704 0.000000 33.147579
RightShoulder -5.459429 -6.850595 1.544148
RightArm 6.218441 -25.530599 70.784028
RightForeArm -19.597109 -0.000000 27.130234
RightHand 0.883807 0.000000 -0.088956
RightHandThumb1 -24.326973 -0.000000 -32.862282
LeftUpLeg 10.022964 5.757333 -0.650560
LeftLeg -9.002711 -0.000000 0.000000
LeftFoot -14.387325 27.300350 -5.823597
LeftToeBase 19.580733 -0.000000 -0.000000
RightUpLeg 2.467956 -5.110011 11.642591
RightLeg -0.856758 -0.000000 0.000000
RightFoot -2.242471 -20.437769 2.978423
RightToeBase 8.571612 -0.000000 -0.000000
2110
root -4.546040 35.362692 -11.715694 -2.047052 -0.217494 -7.824551
Spine 6.329006 -4.759093 5.519027
Head 11.433068 5.736611 0.860437
LeftShoulder -21.831271 17.243220 -7.946497
LeftArm 23.056504 -36.643280 -76.471743
LeftForeArm 3.717168 -0.000000 133.396183
LeftHand 3.468329 -0.000000 14.251645
LeftHandThumb1 -26.253704 0.000000 33.147579
RightShoulder -5.418138 -6.867315 1.505147
RightArm 6.346649 -25.662544 70.656261
RightForeArm -19.787145 -0.000000 27.541878
RightHand 0.831542 -0.000000 -0.539751
RightHandThumb1 -24.326973 -0.000000 -32.862282
LeftUpLeg 10.032235 5.822281 -0.639497
LeftLeg -9.095383 -0.000000 0.000000
LeftFoot -14.325333 27.450194 -5.846580
LeftToeBase 19.559462 -0.000000 -0.000000
RightUpLeg 2.319565 -5.069497 11.670298
RightLeg -0.636137 -0.000000 0.000000
RightFoot -2.285688 -20.302713 2.996508
RightToeBase 8.752763 -0.000000 -0.000000
2111
root -4.551252 35.363602 -11.741644 -2.018690 -0.412419 -7.854848
Spine 6.369025 -4.744050 5.554355
Head 12.028991 5.744716 0.818330
LeftShoulder -21.840324 17.298884 -7.982450
LeftArm 23.034415 -36.605014 -76.423217
LeftForeArm 3.852310 -0.000000 133.480598
LeftHand 3.438850 -0.000000 14.092556
LeftHandThumb1 -26.253704 0.000000 33.147579
RightShoulder -5.391402 -6.899185 1.459345
RightArm 6.496794 -25.758848 70.515971
RightForeArm -19.984274 -0.000000 27.964374
RightHand 0.797703 0.000000 -0.261908
RightHandThumb1 -24.326973 -0.000000 -32.862282
LeftUpLeg 10.030578 5.897902 -0.615287
LeftLeg -9.195429 -0.000000 0.000000
LeftFoot -14.252192 27.594779 -5.813956
LeftToeBase 19.586172 -0.000000 -0.000000
RightUpLeg 2.152618 -5.051121 11.708586
RightLeg -0.409155 -0.000000 0.000000
RightFoot -2.340274 -20.122163 3.056693
RightToeBase 8.769499 -0.000000 -0.000000
